<svg width="170" height="81" viewBox="0 0 170 81" fill="none" xmlns="http://www.w3.org/2000/svg">
<g clip-path="url(#clip0_19_68)">
<path d="M40.7348 79.38C62.3322 79.38 79.8403 61.9728 79.8403 40.5C79.8403 19.0272 62.3322 1.62 40.7348 1.62C19.1375 1.62 1.62939 19.0272 1.62939 40.5C1.62939 61.9728 19.1375 79.38 40.7348 79.38Z" stroke="white" stroke-width="6"/>
<path d="M122.204 79.38C143.802 79.38 161.31 61.9728 161.31 40.5C161.31 19.0272 143.802 1.62 122.204 1.62C100.607 1.62 83.099 19.0272 83.099 40.5C83.099 61.9728 100.607 79.38 122.204 79.38Z" stroke="white" stroke-width="6"/>
<path d="M7.00873 55.08V31.8768H14.1161L16.0786 46.0229L18.0278 31.8768H25.2015V55.08H20.9318V38.3632L18.2532 55.08H14.0631L11.2254 38.3632V55.08H7.00873ZM29.4182 55.08L26.5407 31.8637H30.9829L32.6934 47.6576L34.2183 31.8637H38.6604L35.783 55.08H29.4182ZM45.4628 55.2911C43.7744 55.2911 42.413 54.7679 41.3787 53.7221C40.3533 52.6762 39.8406 51.2128 39.8406 49.332V38.6268C39.8406 36.3769 40.287 34.6542 41.1798 33.4589C42.0815 32.2636 43.5446 31.6659 45.5689 31.6659C46.6739 31.6659 47.6551 31.8681 48.5126 32.2724C49.379 32.6767 50.0596 33.2831 50.5547 34.0917C51.0497 34.8915 51.2973 35.9023 51.2973 37.1239V41.1317H46.6562V37.704C46.6562 37.0097 46.5678 36.5439 46.391 36.3066C46.2142 36.0604 45.9402 35.9374 45.5689 35.9374C45.1358 35.9374 44.844 36.0957 44.6938 36.412C44.5435 36.7196 44.4683 37.1327 44.4683 37.6513V49.266C44.4683 49.9076 44.5611 50.3603 44.7468 50.6239C44.9413 50.8876 45.2153 51.0195 45.5689 51.0195C45.9667 51.0195 46.2452 50.8569 46.4043 50.5316C46.5722 50.2064 46.6562 49.7846 46.6562 49.266V45.0868H51.3503V49.477C51.3503 51.5161 50.8332 52.997 49.7989 53.9199C48.7646 54.8338 47.3192 55.2911 45.4628 55.2911ZM52.2785 55.08L54.5325 31.8768H62.4487L64.6636 55.08H60.2479L59.916 51.3359H57.1053L56.8137 55.08H52.2785ZM57.4366 47.6313H59.5581L58.537 35.832H58.3252L57.4366 47.6313ZM66.0952 55.08V31.8768H73.2559C74.4491 31.8768 75.3507 32.1493 75.9607 32.6942C76.5706 33.2304 76.9774 33.9863 77.1811 34.9618C77.3929 35.9286 77.4988 37.0668 77.4988 38.3764C77.4988 39.642 77.3353 40.6528 77.0084 41.4086C76.6901 42.1645 76.0845 42.6874 75.1916 42.9775C75.9254 43.1269 76.4381 43.4916 76.7297 44.0717C77.0306 44.643 77.1811 45.3856 77.1811 46.2997V55.08H72.5797V45.9965C72.5797 45.3198 72.4379 44.9022 72.1555 44.7441C71.8812 44.5771 71.4348 44.4936 70.8161 44.4936V55.08H66.0952ZM70.8428 40.4726H71.9698C72.615 40.4726 72.9376 39.7739 72.9376 38.3764C72.9376 37.4711 72.867 36.8778 72.7252 36.5966C72.584 36.3154 72.319 36.1747 71.9301 36.1747H70.8428V40.4726ZM79.037 55.08V31.8768H83.678V40.1694H85.8793V31.8768H90.5204V55.08H85.8793V44.5595H83.678V55.08H79.037ZM97.9857 55.2911C96.0408 55.2911 94.6091 54.7506 93.6896 53.6694C92.77 52.5795 92.3106 50.9799 92.3106 48.8705V31.8768H96.8457V48.686C96.8457 49.0727 96.8674 49.4462 96.912 49.8066C96.956 50.1581 97.0575 50.4482 97.2166 50.6767C97.3758 50.9052 97.6321 51.0195 97.9857 51.0195C98.348 51.0195 98.6092 50.9096 98.7684 50.6899C98.9275 50.4613 99.0247 50.1669 99.06 49.8066C99.104 49.4462 99.1263 49.0727 99.1263 48.686V31.8768H103.661V48.8705C103.661 50.9799 103.201 52.5795 102.282 53.6694C101.363 54.7506 99.9307 55.2911 97.9857 55.2911ZM105.451 55.08V31.8768H110.251L112.399 42.9906V31.8768H116.908V55.08H112.347L110.013 43.4784V55.08H105.451ZM120.979 55.08V36.3329H118.208V31.8768H128.417V36.3329H125.646V55.08H120.979ZM129.717 55.08V31.8768H139.052V36.3593H134.464V40.8813H138.867V45.245H134.464V50.558H139.357V55.08H129.717ZM140.909 55.08V31.8768H148.069C149.262 31.8768 150.164 32.1493 150.774 32.6942C151.384 33.2304 151.79 33.9863 151.994 34.9618C152.206 35.9286 152.312 37.0668 152.312 38.3764C152.312 39.642 152.148 40.6528 151.821 41.4086C151.503 42.1645 150.898 42.6874 150.005 42.9775C150.738 43.1269 151.251 43.4916 151.543 44.0717C151.844 44.643 151.994 45.3856 151.994 46.2997V55.08H147.393V45.9965C147.393 45.3198 147.252 44.9022 146.969 44.7441C146.694 44.5771 146.248 44.4936 145.629 44.4936V55.08H140.909ZM145.656 40.4726H146.783C147.428 40.4726 147.751 39.7739 147.751 38.3764C147.751 37.4711 147.68 36.8778 147.539 36.5966C147.397 36.3154 147.132 36.1747 146.743 36.1747H145.656V40.4726Z" fill="#FF0000"/>
<path d="M5.92246 55.08V31.8768H13.0298L14.9923 46.0229L16.9416 31.8768H24.1152V55.08H19.8455V38.3632L17.167 55.08H12.9768L10.1392 38.3632V55.08H5.92246ZM28.3319 55.08L25.4545 31.8637H29.8966L31.6071 47.6576L33.1321 31.8637H37.5742L34.6967 55.08H28.3319ZM44.3766 55.2911C42.6881 55.2911 41.3267 54.7679 40.2924 53.7221C39.267 52.6762 38.7543 51.2128 38.7543 49.332V38.6268C38.7543 36.3769 39.2007 34.6542 40.0935 33.4589C40.9953 32.2636 42.4583 31.6659 44.4826 31.6659C45.5876 31.6659 46.5689 31.8681 47.4264 32.2724C48.2927 32.6767 48.9734 33.2831 49.4684 34.0917C49.9634 34.8915 50.211 35.9023 50.211 37.1239V41.1317H45.5699V37.704C45.5699 37.0097 45.4816 36.5439 45.3048 36.3066C45.1279 36.0604 44.8539 35.9374 44.4826 35.9374C44.0495 35.9374 43.7578 36.0957 43.6075 36.412C43.4572 36.7196 43.382 37.1327 43.382 37.6513V49.266C43.382 49.9076 43.4749 50.3603 43.6605 50.6239C43.855 50.8876 44.129 51.0195 44.4826 51.0195C44.8804 51.0195 45.1589 50.8569 45.318 50.5316C45.486 50.2064 45.5699 49.7846 45.5699 49.266V45.0868H50.264V49.477C50.264 51.5161 49.7469 52.997 48.7126 53.9199C47.6783 54.8338 46.2329 55.2911 44.3766 55.2911ZM51.1922 55.08L53.4464 31.8768H61.3624L63.5773 55.08H59.1616L58.8298 51.3359H56.0191L55.7274 55.08H51.1922ZM56.3504 47.6313H58.4719L57.4508 35.832H57.2389L56.3504 47.6313ZM65.009 55.08V31.8768H72.1696C73.3629 31.8768 74.2645 32.1493 74.8744 32.6942C75.4843 33.2304 75.8912 33.9863 76.0948 34.9618C76.3066 35.9286 76.4126 37.0668 76.4126 38.3764C76.4126 39.642 76.2491 40.6528 75.9221 41.4086C75.6038 42.1645 74.9982 42.6874 74.1053 42.9775C74.8391 43.1269 75.3518 43.4916 75.6435 44.0717C75.9444 44.643 76.0948 45.3856 76.0948 46.2997V55.08H71.4934V45.9965C71.4934 45.3198 71.3517 44.9022 71.0692 44.7441C70.795 44.5771 70.3485 44.4936 69.7299 44.4936V55.08H65.009ZM69.7565 40.4726H70.8835C71.5287 40.4726 71.8513 39.7739 71.8513 38.3764C71.8513 37.4711 71.7807 36.8778 71.639 36.5966C71.4978 36.3154 71.2327 36.1747 70.8438 36.1747H69.7565V40.4726ZM77.9507 55.08V31.8768H82.5918V40.1694H84.7931V31.8768H89.4341V55.08H84.7931V44.5595H82.5918V55.08H77.9507ZM96.8995 55.2911C94.9545 55.2911 93.5228 54.7506 92.6033 53.6694C91.6838 52.5795 91.2243 50.9799 91.2243 48.8705V31.8768H95.7594V48.686C95.7594 49.0727 95.7812 49.4462 95.8257 49.8066C95.8697 50.1581 95.9712 50.4482 96.1304 50.6767C96.2895 50.9052 96.5459 51.0195 96.8995 51.0195C97.2617 51.0195 97.523 50.9096 97.6821 50.6899C97.8413 50.4613 97.9385 50.1669 97.9738 49.8066C98.0178 49.4462 98.04 49.0727 98.04 48.686V31.8768H102.575V48.8705C102.575 50.9799 102.115 52.5795 101.196 53.6694C100.277 54.7506 98.8444 55.2911 96.8995 55.2911ZM104.365 55.08V31.8768H109.165L111.313 42.9906V31.8768H115.822V55.08H111.26L108.927 43.4784V55.08H104.365ZM119.892 55.08V36.3329H117.121V31.8768H127.331V36.3329H124.56V55.08H119.892ZM128.631 55.08V31.8768H137.966V36.3593H133.378V40.8813H137.78V45.245H133.378V50.558H138.271V55.08H128.631ZM139.823 55.08V31.8768H146.983C148.176 31.8768 149.078 32.1493 149.688 32.6942C150.298 33.2304 150.704 33.9863 150.908 34.9618C151.12 35.9286 151.226 37.0668 151.226 38.3764C151.226 39.642 151.062 40.6528 150.735 41.4086C150.417 42.1645 149.811 42.6874 148.919 42.9775C149.652 43.1269 150.165 43.4916 150.457 44.0717C150.757 44.643 150.908 45.3856 150.908 46.2997V55.08H146.306V45.9965C146.306 45.3198 146.165 44.9022 145.882 44.7441C145.608 44.5771 145.162 44.4936 144.543 44.4936V55.08H139.823ZM144.57 40.4726H145.697C146.342 40.4726 146.664 39.7739 146.664 38.3764C146.664 37.4711 146.594 36.8778 146.453 36.5966C146.311 36.3154 146.046 36.1747 145.657 36.1747H144.57V40.4726Z" fill="#00FFFF"/>
<path d="M6.46559 55.08V31.8768H13.5729L15.5354 46.0229L17.4847 31.8768H24.6584V55.08H20.3886V38.3632L17.7101 55.08H13.5199L10.6823 38.3632V55.08H6.46559ZM28.8751 55.08L25.9976 31.8637H30.4397L32.1503 47.6576L33.6752 31.8637H38.1173L35.2399 55.08H28.8751ZM44.9197 55.2911C43.2313 55.2911 41.8699 54.7679 40.8356 53.7221C39.8101 52.6762 39.2974 51.2128 39.2974 49.332V38.6268C39.2974 36.3769 39.7439 34.6542 40.6367 33.4589C41.5384 32.2636 43.0014 31.6659 45.0258 31.6659C46.1308 31.6659 47.112 31.8681 47.9695 32.2724C48.8358 32.6767 49.5165 33.2831 50.0116 34.0917C50.5066 34.8915 50.7541 35.9023 50.7541 37.1239V41.1317H46.1131V37.704C46.1131 37.0097 46.0247 36.5439 45.8479 36.3066C45.6711 36.0604 45.3971 35.9374 45.0258 35.9374C44.5926 35.9374 44.3009 36.0957 44.1506 36.412C44.0003 36.7196 43.9252 37.1327 43.9252 37.6513V49.266C43.9252 49.9076 44.018 50.3603 44.2036 50.6239C44.3981 50.8876 44.6721 51.0195 45.0258 51.0195C45.4236 51.0195 45.702 50.8569 45.8612 50.5316C46.0291 50.2064 46.1131 49.7846 46.1131 49.266V45.0868H50.8071V49.477C50.8071 51.5161 50.29 52.997 49.2557 53.9199C48.2214 54.8338 46.7761 55.2911 44.9197 55.2911ZM51.7353 55.08L53.9896 31.8768H61.9055L64.1204 55.08H59.7048L59.3729 51.3359H56.5622L56.2705 55.08H51.7353ZM56.8935 47.6313H59.015L57.9939 35.832H57.7821L56.8935 47.6313ZM65.5521 55.08V31.8768H72.7127C73.906 31.8768 74.8076 32.1493 75.4175 32.6942C76.0275 33.2304 76.4343 33.9863 76.638 34.9618C76.8498 35.9286 76.9557 37.0668 76.9557 38.3764C76.9557 39.642 76.7922 40.6528 76.4652 41.4086C76.147 42.1645 75.5414 42.6874 74.6485 42.9775C75.3822 43.1269 75.8949 43.4916 76.1866 44.0717C76.4875 44.643 76.638 45.3856 76.638 46.2997V55.08H72.0366V45.9965C72.0366 45.3198 71.8948 44.9022 71.6124 44.7441C71.3381 44.5771 70.8916 44.4936 70.273 44.4936V55.08H65.5521ZM70.2996 40.4726H71.4266C72.0719 40.4726 72.3945 39.7739 72.3945 38.3764C72.3945 37.4711 72.3239 36.8778 72.1821 36.5966C72.0409 36.3154 71.7758 36.1747 71.387 36.1747H70.2996V40.4726ZM78.4938 55.08V31.8768H83.1349V40.1694H85.3362V31.8768H89.9773V55.08H85.3362V44.5595H83.1349V55.08H78.4938ZM97.4426 55.2911C95.4976 55.2911 94.0659 54.7506 93.1464 53.6694C92.2269 52.5795 91.7674 50.9799 91.7674 48.8705V31.8768H96.3026V48.686C96.3026 49.0727 96.3243 49.4462 96.3688 49.8066C96.4128 50.1581 96.5144 50.4482 96.6735 50.6767C96.8326 50.9052 97.089 51.0195 97.4426 51.0195C97.8049 51.0195 98.0661 50.9096 98.2252 50.6899C98.3844 50.4613 98.4816 50.1669 98.5169 49.8066C98.5609 49.4462 98.5832 49.0727 98.5832 48.686V31.8768H103.118V48.8705C103.118 50.9799 102.658 52.5795 101.739 53.6694C100.82 54.7506 99.3875 55.2911 97.4426 55.2911ZM104.908 55.08V31.8768H109.708L111.856 42.9906V31.8768H116.365V55.08H111.804L109.47 43.4784V55.08H104.908ZM120.435 55.08V36.3329H117.664V31.8768H127.874V36.3329H125.103V55.08H120.435ZM129.174 55.08V31.8768H138.509V36.3593H133.921V40.8813H138.324V45.245H133.921V50.558H138.814V55.08H129.174ZM140.366 55.08V31.8768H147.526C148.719 31.8768 149.621 32.1493 150.231 32.6942C150.841 33.2304 151.247 33.9863 151.451 34.9618C151.663 35.9286 151.769 37.0668 151.769 38.3764C151.769 39.642 151.605 40.6528 151.278 41.4086C150.96 42.1645 150.354 42.6874 149.462 42.9775C150.195 43.1269 150.708 43.4916 151 44.0717C151.301 44.643 151.451 45.3856 151.451 46.2997V55.08H146.85V45.9965C146.85 45.3198 146.708 44.9022 146.425 44.7441C146.151 44.5771 145.705 44.4936 145.086 44.4936V55.08H140.366ZM145.113 40.4726H146.24C146.885 40.4726 147.208 39.7739 147.208 38.3764C147.208 37.4711 147.137 36.8778 146.996 36.5966C146.854 36.3154 146.589 36.1747 146.2 36.1747H145.113V40.4726Z" fill="white"/>
</g>
<defs>
<clipPath id="clip0_19_68">
<rect width="170" height="81" fill="white"/>
</clipPath>
</defs>
</svg>
